<?xml version="1.0" encoding="UTF-8" standalone="no"?>
<!DOCTYPE svg PUBLIC "-//W3C//DTD SVG 1.1//EN" "http://www.w3.org/Graphics/SVG/1.1/DTD/svg11.dtd">
<svg width="100%" height="100%" viewBox="0 0 322 238" version="1.1" xmlns="http://www.w3.org/2000/svg" xmlns:xlink="http://www.w3.org/1999/xlink" xml:space="preserve" xmlns:serif="http://www.serif.com/" style="fill-rule:evenodd;clip-rule:evenodd;stroke-linejoin:round;stroke-miterlimit:2;">
    <g transform="matrix(1,0,0,1,-144,-186.259)">
        <g transform="matrix(4.57457,0,0,4.57457,-3454.22,-3419.32)">
            <g transform="matrix(0.80431,0,0,0.80431,170.418,163.939)">
                <path d="M818.887,790.635C821.846,792.441 830.176,800.387 831.456,802.107L798.222,835.341L774.181,811.3C775.532,805.472 778.068,799.866 781.789,794.866L798.222,811.3L818.887,790.635Z" style="fill:rgb(61,184,56);"/>
            </g>
        </g>
        <g transform="matrix(4.57457,0,0,4.57457,-3454.22,-3419.32)">
            <g transform="matrix(0.94389,0,0,0.94389,412.79,-318.531)">
                <path d="M441.011,1184.87C441.011,1184.87 453.38,1172.5 453.38,1172.5C455.902,1174.04 458.281,1175.9 460.459,1178.08C461.789,1179.4 463,1180.81 464.091,1182.28L451.722,1194.64C450.631,1193.18 443.534,1186.41 441.011,1184.87Z" style="fill:rgb(240,240,240);"/>
            </g>
        </g>
        <g transform="matrix(4.57457,0,0,4.57457,-3454.22,-3419.32)">
            <g transform="matrix(0.94389,0,0,0.94389,412.79,-318.531)">
                <path d="M409.399,1188.47C406.229,1192.73 404.068,1197.51 402.916,1202.48L396.718,1196.28C397.869,1191.31 400.03,1186.54 403.201,1182.28L409.399,1188.47Z" style="fill:rgb(240,240,240);"/>
            </g>
        </g>
        <g transform="matrix(4.57457,0,0,4.57457,-3454.22,-3419.32)">
            <g transform="matrix(0.80431,0,0,0.80431,170.418,163.939)">
                <path d="M774.181,811.3L786.201,823.321L772.235,837.287C768.862,831.759 766.805,825.651 766.065,819.416L774.181,811.3Z" style="fill:rgb(240,240,240);"/>
            </g>
        </g>
        <g transform="matrix(4.57457,0,0,4.57457,-3454.22,-3419.32)">
            <g transform="matrix(0.80431,0,0,0.80431,170.418,163.939)">
                <path d="M819.435,814.128L831.456,802.107L853.58,824.231C852.228,830.059 849.692,835.665 845.971,840.664L819.435,814.128Z" style="fill:rgb(240,240,240);"/>
            </g>
        </g>
    </g>
</svg>
